<?xml version="1.0" encoding="UTF-8" standalone="no"?>
<!DOCTYPE svg PUBLIC "-//W3C//DTD SVG 1.1//EN"
 "http://www.w3.org/Graphics/SVG/1.1/DTD/svg11.dtd">
<!-- Generated by graphviz version 2.40.1 (20161225.0304)
 -->
<!-- Title: dependencies Pages: 1 -->
<svg width="708pt" height="211pt"
 viewBox="0.00 0.00 708.00 211.00" xmlns="http://www.w3.org/2000/svg" xmlns:xlink="http://www.w3.org/1999/xlink">
<g id="graph0" class="graph" transform="scale(1 1) rotate(0) translate(4 207)">
<title>dependencies</title>
<polygon fill="#ffffff" stroke="transparent" points="-4,4 -4,-207 704,-207 704,4 -4,4"/>
<text text-anchor="start" x="329.0091" y="-42.4" font-family="sans-serif" font-weight="bold" font-size="14.00" fill="#000000">Legend</text>
<polygon fill="#ffffb3" stroke="transparent" points="116,-10 116,-30 136,-30 136,-10 116,-10"/>
<text text-anchor="start" x="139.629" y="-15.4" font-family="sans-serif" font-size="14.00" fill="#000000"> &#160;Declarations</text>
<polygon fill="#8dd3c7" stroke="transparent" points="229,-10 229,-30 249,-30 249,-10 229,-10"/>
<text text-anchor="start" x="252.7251" y="-15.4" font-family="sans-serif" font-size="14.00" fill="#000000"> &#160;Module</text>
<polygon fill="#80b1d3" stroke="transparent" points="315,-10 315,-30 335,-30 335,-10 315,-10"/>
<text text-anchor="start" x="338.7812" y="-15.4" font-family="sans-serif" font-size="14.00" fill="#000000"> &#160;Bootstrap</text>
<polygon fill="#fdb462" stroke="transparent" points="412,-10 412,-30 432,-30 432,-10 412,-10"/>
<text text-anchor="start" x="435.6732" y="-15.4" font-family="sans-serif" font-size="14.00" fill="#000000"> &#160;Providers</text>
<polygon fill="#fb8072" stroke="transparent" points="508,-10 508,-30 528,-30 528,-10 508,-10"/>
<text text-anchor="start" x="531.7258" y="-15.4" font-family="sans-serif" font-size="14.00" fill="#000000"> &#160;Exports</text>
<g id="clust1" class="cluster">
<title>cluster_GiveConsentModule</title>
<polygon fill="none" stroke="#000000" stroke-dasharray="1,5" points="8,-70 8,-195 692,-195 692,-70 8,-70"/>
</g>
<g id="clust2" class="cluster">
<title>cluster_GiveConsentModule_declarations</title>
<polygon fill="none" stroke="#000000" points="514,-78 514,-130 684,-130 684,-78 514,-78"/>
</g>
<g id="clust4" class="cluster">
<title>cluster_GiveConsentModule_imports</title>
<polygon fill="none" stroke="#000000" points="190,-78 190,-130 506,-130 506,-78 190,-78"/>
</g>
<g id="clust7" class="cluster">
<title>cluster_GiveConsentModule_providers</title>
<polygon fill="none" stroke="#000000" points="16,-78 16,-130 182,-130 182,-78 16,-78"/>
</g>
<!-- GiveConsentComponent -->
<g id="node1" class="node">
<title>GiveConsentComponent</title>
<polygon fill="#ffffb3" stroke="#000000" points="676.4312,-122 521.5688,-122 521.5688,-86 676.4312,-86 676.4312,-122"/>
<text text-anchor="middle" x="599" y="-99.8" font-family="Times,serif" font-size="14.00" fill="#000000">GiveConsentComponent</text>
</g>
<!-- GiveConsentModule -->
<g id="node2" class="node">
<title>GiveConsentModule</title>
<polygon fill="#8dd3c7" stroke="#000000" points="395.1485,-187 392.1485,-191 371.1485,-191 368.1485,-187 262.8515,-187 262.8515,-151 395.1485,-151 395.1485,-187"/>
<text text-anchor="middle" x="329" y="-164.8" font-family="Times,serif" font-size="14.00" fill="#000000">GiveConsentModule</text>
</g>
<!-- GiveConsentComponent&#45;&gt;GiveConsentModule -->
<g id="edge1" class="edge">
<title>GiveConsentComponent&#45;&gt;GiveConsentModule</title>
<path fill="none" stroke="#000000" d="M599,-122.1061C599,-141.3391 599,-169 599,-169 599,-169 405.3952,-169 405.3952,-169"/>
<polygon fill="#000000" stroke="#000000" points="405.3953,-165.5001 395.3952,-169 405.3952,-172.5001 405.3953,-165.5001"/>
</g>
<!-- GiveConsentRoutingModule -->
<g id="node3" class="node">
<title>GiveConsentRoutingModule</title>
<polygon fill="#8dd3c7" stroke="#000000" points="497.766,-122 494.766,-126 473.766,-126 470.766,-122 320.234,-122 320.234,-86 497.766,-86 497.766,-122"/>
<text text-anchor="middle" x="409" y="-99.8" font-family="Times,serif" font-size="14.00" fill="#000000">GiveConsentRoutingModule</text>
</g>
<!-- GiveConsentRoutingModule&#45;&gt;GiveConsentModule -->
<g id="edge2" class="edge">
<title>GiveConsentRoutingModule&#45;&gt;GiveConsentModule</title>
<path fill="none" stroke="#000000" d="M357.7206,-122.1061C357.7206,-122.1061 357.7206,-140.991 357.7206,-140.991"/>
<polygon fill="#000000" stroke="#000000" points="354.2206,-140.9909 357.7206,-150.991 361.2206,-140.991 354.2206,-140.9909"/>
</g>
<!-- ToolbarModule -->
<g id="node4" class="node">
<title>ToolbarModule</title>
<polygon fill="#8dd3c7" stroke="#000000" points="301.8683,-122 298.8683,-126 277.8683,-126 274.8683,-122 198.1317,-122 198.1317,-86 301.8683,-86 301.8683,-122"/>
<text text-anchor="middle" x="250" y="-99.8" font-family="Times,serif" font-size="14.00" fill="#000000">ToolbarModule</text>
</g>
<!-- ToolbarModule&#45;&gt;GiveConsentModule -->
<g id="edge3" class="edge">
<title>ToolbarModule&#45;&gt;GiveConsentModule</title>
<path fill="none" stroke="#000000" d="M282.3051,-122.1061C282.3051,-122.1061 282.3051,-140.991 282.3051,-140.991"/>
<polygon fill="#000000" stroke="#000000" points="278.8051,-140.9909 282.3051,-150.991 285.8051,-140.991 278.8051,-140.9909"/>
</g>
<!-- ConsentsService -->
<g id="node5" class="node">
<title>ConsentsService</title>
<ellipse fill="#fdb462" stroke="#000000" cx="99" cy="-104" rx="75.2983" ry="18"/>
<text text-anchor="middle" x="99" y="-99.8" font-family="Times,serif" font-size="14.00" fill="#000000">ConsentsService</text>
</g>
<!-- ConsentsService&#45;&gt;GiveConsentModule -->
<g id="edge4" class="edge">
<title>ConsentsService&#45;&gt;GiveConsentModule</title>
<path fill="none" stroke="#000000" d="M99,-122.1061C99,-141.3391 99,-169 99,-169 99,-169 252.783,-169 252.783,-169"/>
<polygon fill="#000000" stroke="#000000" points="252.7831,-172.5001 262.783,-169 252.783,-165.5001 252.7831,-172.5001"/>
</g>
</g>
</svg>
