<?xml version="1.0" encoding="UTF-8" standalone="no"?>
<!DOCTYPE svg PUBLIC "-//W3C//DTD SVG 1.1//EN"
 "http://www.w3.org/Graphics/SVG/1.1/DTD/svg11.dtd">
<!-- Generated by graphviz version 2.40.1 (20161225.0304)
 -->
<!-- Title: dependencies Pages: 1 -->
<svg width="664pt" height="211pt"
 viewBox="0.00 0.00 664.00 211.00" xmlns="http://www.w3.org/2000/svg" xmlns:xlink="http://www.w3.org/1999/xlink">
<g id="graph0" class="graph" transform="scale(1 1) rotate(0) translate(4 207)">
<title>dependencies</title>
<polygon fill="#ffffff" stroke="transparent" points="-4,4 -4,-207 660,-207 660,4 -4,4"/>
<text text-anchor="start" x="307.0091" y="-42.4" font-family="sans-serif" font-weight="bold" font-size="14.00" fill="#000000">Legend</text>
<polygon fill="#ffffb3" stroke="transparent" points="94,-10 94,-30 114,-30 114,-10 94,-10"/>
<text text-anchor="start" x="117.629" y="-15.4" font-family="sans-serif" font-size="14.00" fill="#000000"> &#160;Declarations</text>
<polygon fill="#8dd3c7" stroke="transparent" points="207,-10 207,-30 227,-30 227,-10 207,-10"/>
<text text-anchor="start" x="230.7251" y="-15.4" font-family="sans-serif" font-size="14.00" fill="#000000"> &#160;Module</text>
<polygon fill="#80b1d3" stroke="transparent" points="293,-10 293,-30 313,-30 313,-10 293,-10"/>
<text text-anchor="start" x="316.7812" y="-15.4" font-family="sans-serif" font-size="14.00" fill="#000000"> &#160;Bootstrap</text>
<polygon fill="#fdb462" stroke="transparent" points="390,-10 390,-30 410,-30 410,-10 390,-10"/>
<text text-anchor="start" x="413.6732" y="-15.4" font-family="sans-serif" font-size="14.00" fill="#000000"> &#160;Providers</text>
<polygon fill="#fb8072" stroke="transparent" points="486,-10 486,-30 506,-30 506,-10 486,-10"/>
<text text-anchor="start" x="509.7258" y="-15.4" font-family="sans-serif" font-size="14.00" fill="#000000"> &#160;Exports</text>
<g id="clust1" class="cluster">
<title>cluster_ConsentsModule</title>
<polygon fill="none" stroke="#000000" stroke-dasharray="1,5" points="8,-70 8,-195 648,-195 648,-70 8,-70"/>
</g>
<g id="clust2" class="cluster">
<title>cluster_ConsentsModule_declarations</title>
<polygon fill="none" stroke="#000000" points="492,-78 492,-130 640,-130 640,-78 492,-78"/>
</g>
<g id="clust4" class="cluster">
<title>cluster_ConsentsModule_imports</title>
<polygon fill="none" stroke="#000000" points="190,-78 190,-130 484,-130 484,-78 190,-78"/>
</g>
<g id="clust7" class="cluster">
<title>cluster_ConsentsModule_providers</title>
<polygon fill="none" stroke="#000000" points="16,-78 16,-130 182,-130 182,-78 16,-78"/>
</g>
<!-- ConsentsComponent -->
<g id="node1" class="node">
<title>ConsentsComponent</title>
<polygon fill="#ffffb3" stroke="#000000" points="632.1638,-122 499.8362,-122 499.8362,-86 632.1638,-86 632.1638,-122"/>
<text text-anchor="middle" x="566" y="-99.8" font-family="Times,serif" font-size="14.00" fill="#000000">ConsentsComponent</text>
</g>
<!-- ConsentsModule -->
<g id="node2" class="node">
<title>ConsentsModule</title>
<polygon fill="#8dd3c7" stroke="#000000" points="379.3809,-187 376.3809,-191 355.3809,-191 352.3809,-187 268.6191,-187 268.6191,-151 379.3809,-151 379.3809,-187"/>
<text text-anchor="middle" x="324" y="-164.8" font-family="Times,serif" font-size="14.00" fill="#000000">ConsentsModule</text>
</g>
<!-- ConsentsComponent&#45;&gt;ConsentsModule -->
<g id="edge1" class="edge">
<title>ConsentsComponent&#45;&gt;ConsentsModule</title>
<path fill="none" stroke="#000000" d="M566,-122.1061C566,-141.3391 566,-169 566,-169 566,-169 389.5197,-169 389.5197,-169"/>
<polygon fill="#000000" stroke="#000000" points="389.5197,-165.5001 379.5197,-169 389.5197,-172.5001 389.5197,-165.5001"/>
</g>
<!-- ConsentsRoutingModule -->
<g id="node3" class="node">
<title>ConsentsRoutingModule</title>
<polygon fill="#8dd3c7" stroke="#000000" points="475.9986,-122 472.9986,-126 451.9986,-126 448.9986,-122 320.0014,-122 320.0014,-86 475.9986,-86 475.9986,-122"/>
<text text-anchor="middle" x="398" y="-99.8" font-family="Times,serif" font-size="14.00" fill="#000000">ConsentsRoutingModule</text>
</g>
<!-- ConsentsRoutingModule&#45;&gt;ConsentsModule -->
<g id="edge2" class="edge">
<title>ConsentsRoutingModule&#45;&gt;ConsentsModule</title>
<path fill="none" stroke="#000000" d="M349.7206,-122.1061C349.7206,-122.1061 349.7206,-140.991 349.7206,-140.991"/>
<polygon fill="#000000" stroke="#000000" points="346.2206,-140.9909 349.7206,-150.991 353.2206,-140.991 346.2206,-140.9909"/>
</g>
<!-- ToolbarModule -->
<g id="node4" class="node">
<title>ToolbarModule</title>
<polygon fill="#8dd3c7" stroke="#000000" points="301.8683,-122 298.8683,-126 277.8683,-126 274.8683,-122 198.1317,-122 198.1317,-86 301.8683,-86 301.8683,-122"/>
<text text-anchor="middle" x="250" y="-99.8" font-family="Times,serif" font-size="14.00" fill="#000000">ToolbarModule</text>
</g>
<!-- ToolbarModule&#45;&gt;ConsentsModule -->
<g id="edge3" class="edge">
<title>ToolbarModule&#45;&gt;ConsentsModule</title>
<path fill="none" stroke="#000000" d="M285.2469,-122.1061C285.2469,-122.1061 285.2469,-140.991 285.2469,-140.991"/>
<polygon fill="#000000" stroke="#000000" points="281.7469,-140.9909 285.2469,-150.991 288.7469,-140.991 281.7469,-140.9909"/>
</g>
<!-- ConsentsService -->
<g id="node5" class="node">
<title>ConsentsService</title>
<ellipse fill="#fdb462" stroke="#000000" cx="99" cy="-104" rx="75.2983" ry="18"/>
<text text-anchor="middle" x="99" y="-99.8" font-family="Times,serif" font-size="14.00" fill="#000000">ConsentsService</text>
</g>
<!-- ConsentsService&#45;&gt;ConsentsModule -->
<g id="edge4" class="edge">
<title>ConsentsService&#45;&gt;ConsentsModule</title>
<path fill="none" stroke="#000000" d="M99,-122.1061C99,-141.3391 99,-169 99,-169 99,-169 258.382,-169 258.382,-169"/>
<polygon fill="#000000" stroke="#000000" points="258.382,-172.5001 268.382,-169 258.382,-165.5001 258.382,-172.5001"/>
</g>
</g>
</svg>
